<svg xmlns="http://www.w3.org/2000/svg" height="48" viewBox="0 -960 960 960" width="48"><path d="M438-258H281q-93.505 0-157.753-64.268Q59-386.536 59-479.845q0-93.308 64.247-158.231Q187.495-703 281-703h157v92H281.429q-56.512 0-93.971 37.765-37.458 37.764-37.458 93Q150-425 187.458-387q37.459 38 93.971 38H438v91ZM310-445v-69h340v69H310Zm212 187v-91h156.571q56.512 0 93.971-37.765 37.458-37.764 37.458-93Q810-535 772.542-573q-37.459-38-93.971-38H522v-92h157q93.185 0 158.092 64.994Q902-573.011 902-479.703q0 93.308-64.908 157.505Q772.185-258 679-258H522Z"/></svg>